# xmcd
#
# Track frame offsets:
# 150
# 14180
# 24605
# 41254
# 65110
# 76780
# 94255
# 106551
# 129041
# 147954
# 164670
# 187432
#
# Disc length: 2718 seconds
#
#
# Revision: 0
# Processed by: cddbd v1.5.1PL2 Copyright (c) Steve Scherf et al.
# Submitted via: FreeRIP 2.944 
#
DISCID=a20a9c0c
DTITLE=The Biscuit Burners - Fiery Mountain Music
DYEAR=2004
DGENRE=Bluegrass
TTITLE0=Bakerstown
TTITLE1=Once Upon a Time
TTITLE2=Autry's Peach Orchard
TTITLE3=Prayer of the Moonlight
TTITLE4=Mountain Lily
TTITLE5=If I Fall
TTITLE6=Cow and Sake
TTITLE7=Com on Darlin'
TTITLE8=Mono City Jail
TTITLE9=Mermon
TTITLE10=Hot August Evening
TTITLE11=Red Mountain Wine
EXTD=
EXTT0=
EXTT1=
EXTT2=
EXTT3=
EXTT4=
EXTT5=
EXTT6=
EXTT7=
EXTT8=
EXTT9=
EXTT10=
EXTT11=
PLAYORDER=
